<svg width="30" height="30" viewBox="0 0 30 30" fill="none" xmlns="http://www.w3.org/2000/svg">
<path d="M29.6666 6.99999V1.66666C29.6666 1.31304 29.5261 0.9739 29.2761 0.723852C29.026 0.473803 28.6869 0.333328 28.3333 0.333328H1.66659C1.31296 0.333328 0.973824 0.473803 0.723775 0.723852C0.473727 0.9739 0.333252 1.31304 0.333252 1.66666V6.99999H29.6666Z" fill="#1DB5BE"/>
<path d="M0.333252 9.66666V28.3333C0.333252 28.6869 0.473727 29.0261 0.723775 29.2761C0.973824 29.5262 1.31296 29.6667 1.66659 29.6667H8.33325V9.66666H0.333252Z" fill="#C4B5FD"/>
<path d="M11 29.6667H28.3333C28.687 29.6667 29.0261 29.5262 29.2761 29.2761C29.5262 29.0261 29.6667 28.6869 29.6667 28.3333V9.66666H11V29.6667Z" fill="#7C3AED"/>
</svg>
