<svg width="30" height="30" viewBox="0 0 30 30" fill="none" xmlns="http://www.w3.org/2000/svg">
<path d="M5.66658 0.333333H1.66659C1.31296 0.333333 0.973824 0.473808 0.723775 0.723857C0.473727 0.973905 0.333252 1.31304 0.333252 1.66667V28.3333C0.333252 28.687 0.473727 29.0261 0.723775 29.2761C0.973824 29.5262 1.31296 29.6667 1.66659 29.6667H5.66658V0.333333Z" fill="#C4B5FD"/>
<path d="M8.33325 29.6667H21.6666V0.333333H8.33325V29.6667ZM14.9999 24.3333C14.6463 24.3333 14.3072 24.1929 14.0571 23.9428C13.8071 23.6928 13.6666 23.3536 13.6666 23C13.6666 22.6464 13.8071 22.3072 14.0571 22.0572C14.3072 21.8071 14.6463 21.6667 14.9999 21.6667C15.3535 21.6667 15.6927 21.8071 15.9427 22.0572C16.1928 22.3072 16.3333 22.6464 16.3333 23C16.3333 23.3536 16.1928 23.6928 15.9427 23.9428C15.6927 24.1929 15.3535 24.3333 14.9999 24.3333ZM14.9999 5.66667C15.3535 5.66667 15.6927 5.80714 15.9427 6.05719C16.1928 6.30724 16.3333 6.64638 16.3333 7C16.3333 7.35362 16.1928 7.69276 15.9427 7.94281C15.6927 8.19286 15.3535 8.33333 14.9999 8.33333C14.6463 8.33333 14.3072 8.19286 14.0571 7.94281C13.8071 7.69276 13.6666 7.35362 13.6666 7C13.6666 6.64638 13.8071 6.30724 14.0571 6.05719C14.3072 5.80714 14.6463 5.66667 14.9999 5.66667ZM14.9999 13.6667C15.3535 13.6667 15.6927 13.8071 15.9427 14.0572C16.1928 14.3072 16.3333 14.6464 16.3333 15C16.3333 15.3536 16.1928 15.6928 15.9427 15.9428C15.6927 16.1929 15.3535 16.3333 14.9999 16.3333C14.6463 16.3333 14.3072 16.1929 14.0571 15.9428C13.8071 15.6928 13.6666 15.3536 13.6666 15C13.6666 14.6464 13.8071 14.3072 14.0571 14.0572C14.3072 13.8071 14.6463 13.6667 14.9999 13.6667Z" fill="#7C3AED"/>
<path d="M28.3333 0.333333H24.3333V29.6667H28.3333C28.6869 29.6667 29.026 29.5262 29.2761 29.2761C29.5261 29.0261 29.6666 28.687 29.6666 28.3333V1.66667C29.6666 1.31304 29.5261 0.973905 29.2761 0.723857C29.026 0.473808 28.6869 0.333333 28.3333 0.333333Z" fill="#1DB5BE"/>
</svg>
