<svg width="30" height="31" viewBox="0 0 30 31" fill="none" xmlns="http://www.w3.org/2000/svg">
<path d="M10.9999 12.8333H1.66659C1.31296 12.8333 0.973824 12.6929 0.723775 12.4428C0.473727 12.1928 0.333252 11.8536 0.333252 11.5V2.16668C0.333252 1.81305 0.473727 1.47392 0.723775 1.22387C0.973824 0.973818 1.31296 0.833344 1.66659 0.833344H10.9999C11.3535 0.833344 11.6927 0.973818 11.9427 1.22387C12.1928 1.47392 12.3333 1.81305 12.3333 2.16668V11.5C12.3333 11.8536 12.1928 12.1928 11.9427 12.4428C11.6927 12.6929 11.3535 12.8333 10.9999 12.8333Z" fill="#7C3AED"/>
<path d="M10.9999 30.1667H1.66659C1.31296 30.1667 0.973824 30.0262 0.723775 29.7762C0.473727 29.5261 0.333252 29.187 0.333252 28.8334V19.5C0.333252 19.1464 0.473727 18.8073 0.723775 18.5572C0.973824 18.3072 1.31296 18.1667 1.66659 18.1667H10.9999C11.3535 18.1667 11.6927 18.3072 11.9427 18.5572C12.1928 18.8073 12.3333 19.1464 12.3333 19.5V28.8334C12.3333 29.187 12.1928 29.5261 11.9427 29.7762C11.6927 30.0262 11.3535 30.1667 10.9999 30.1667Z" fill="#7C3AED"/>
<path d="M16.3333 2.16669H29.6666V4.83335H16.3333V2.16669Z" fill="#1DB5BE"/>
<path d="M29.6666 19.5H16.3333V22.1667H29.6666V19.5Z" fill="#1DB5BE"/>
<path d="M29.6666 26.1667H16.3333V28.8334H29.6666V26.1667Z" fill="#C4B5FD"/>
<path d="M29.6666 8.83334H16.3333V11.5H29.6666V8.83334Z" fill="#C4B5FD"/>
</svg>
